<?xml version="1.0" encoding="UTF-8"?>
<svg width="16px" height="20px" viewBox="0 0 16 20" version="1.1" xmlns="http://www.w3.org/2000/svg" xmlns:xlink="http://www.w3.org/1999/xlink">
    <!-- Generator: Sketch 40.3 (33839) - http://www.bohemiancoding.com/sketch -->
    <title>Page 1</title>
    <desc>Created with Sketch.</desc>
    <defs></defs>
    <g id="Page-1" stroke="none" stroke-width="1" fill="none" fill-rule="evenodd">
        <g id="Tablet-7″-Landscape-Copy-7" transform="translate(-15.000000, -310.000000)" fill="#333333">
            <g id="Page-1" transform="translate(15.000000, 310.000000)">
                <path d="M15.7657778,6.23777778 L15.7657778,3.28666667 C15.7657778,2.94266667 15.4862222,2.66311111 15.1422222,2.66311111 L11.0173333,2.66311111 L11.0173333,0.639111111 C11.0173333,0.295111111 10.7377778,0.0155555556 10.396,0.0155555556 L5.72577778,0.0155555556 C5.38177778,0.0155555556 5.10222222,0.295111111 5.10222222,0.639111111 L5.10222222,2.66311111 L0.975555556,2.66311111 C0.632,2.66311111 0.352444444,2.94266667 0.352444444,3.28666667 L0.352444444,6.23777778 C0.352444444,6.58177778 0.632,6.85955556 0.975555556,6.85955556 L1.15466667,6.85955556 L1.15466667,19.3213333 C1.15466667,19.6648889 1.43422222,19.9444444 1.776,19.9444444 L12.5746667,19.9444444 C13.8924444,19.9444444 14.9635556,18.8733333 14.9635556,17.5573333 L14.9635556,6.86133333 L15.1422222,6.86133333 C15.4862222,6.86133333 15.7657778,6.58177778 15.7657778,6.23777778 L15.7657778,6.23777778 Z M6.34533333,1.264 L9.77066667,1.264 L9.77066667,2.66488889 L6.34533333,2.66488889 L6.34533333,1.264 Z M13.7186667,17.5573333 C13.7186667,18.1875556 13.2066667,18.6995556 12.5764444,18.6995556 L2.40088889,18.6995556 L2.40088889,6.86133333 L13.7204444,6.86133333 L13.7204444,17.5573333 L13.7186667,17.5573333 Z M14.5191111,5.61466667 L1.59733333,5.61466667 L1.59733333,3.90977778 L14.5191111,3.90977778 L14.5191111,5.61466667 Z" id="Fill-1"></path>
                <polygon id="Fill-2" points="4.32311111 16.6755556 5.568 16.6755556 5.568 9.35777778 4.32311111 9.35777778"></polygon>
                <polygon id="Fill-3" points="7.43555556 16.6755556 8.68044444 16.6755556 8.68044444 9.35777778 7.43555556 9.35777778"></polygon>
                <polygon id="Fill-4" points="10.5484444 16.6755556 11.7933333 16.6755556 11.7933333 9.35777778 10.5484444 9.35777778"></polygon>
            </g>
        </g>
    </g>
</svg>