<?xml version="1.0" encoding="UTF-8" standalone="no"?>
<svg width="800px" height="800px" viewBox="0 0 800 800" version="1.1" xmlns="http://www.w3.org/2000/svg" xmlns:xlink="http://www.w3.org/1999/xlink">
    <!-- Generator: Sketch 3.8.3 (29802) - http://www.bohemiancoding.com/sketch -->
    <title>Artboard 9</title>
    <desc>Created with Sketch.</desc>
    <defs></defs>
    <g id="Page-1" stroke="none" stroke-width="1" fill="none" fill-rule="evenodd">
        <g id="Artboard-9">
            <g id="Group" transform="translate(-6.414793, -29.000000)">
                <g id="noun_116635_cc" transform="translate(293.944435, 343.621722) rotate(-15.000000) translate(-293.944435, -343.621722) translate(69.444435, 48.621722)">
                    <path d="M43.0474942,21.4175334 L275.351246,21.4175334 L275.351246,125.318061 C275.351246,148.36862 294.388304,167.333531 317.499802,167.333531 L427.934183,167.333531 L427.934183,547.107429 C427.934183,558.90161 418.500342,568.277755 406.697325,568.277755 L43.0474942,568.277755 C31.2423856,568.277755 21.8095905,558.90161 21.8095905,547.107429 L21.8095905,42.5889024 C21.8095905,30.8207772 31.2423856,21.4175334 43.0474942,21.4175334 L43.0474942,21.4175334 Z" id="Path" fill="#333333"></path>
                    <path d="M285.480366,0.247206759 C285.147617,0.338670249 284.819615,0.446502179 284.497565,0.570306467 L283.514765,0.570306467 L43.0422665,0.570306467 C19.9265863,0.570306467 0.893710812,19.5435551 0.893710812,42.5868178 L0.893710812,547.105344 C0.893710812,570.161114 19.9265863,589.120813 43.0422665,589.120813 L406.692097,589.120813 C429.807777,589.120813 448.839607,570.161114 448.839607,547.105344 L448.839607,157.561328 C448.846524,157.342508 448.846524,157.123525 448.839607,156.904706 C448.841282,156.797012 448.841282,156.6893 448.839607,156.581606 C448.794042,155.921416 448.685513,155.267052 448.515492,154.627374 C448.517167,154.519681 448.517167,154.411968 448.515492,154.304274 C448.522191,154.088926 448.522191,153.873423 448.515492,153.658075 C448.409835,153.548027 448.301771,153.440301 448.191377,153.334975 C448.193051,153.227282 448.193051,153.119569 448.191377,153.011875 C448.090862,152.792807 447.982758,152.577278 447.867262,152.365676 C447.766966,152.143088 447.658862,151.924079 447.543147,151.709054 C447.435115,151.707385 447.327063,151.707385 447.219032,151.709054 C447.118516,151.489985 447.010413,151.274456 446.894916,151.062855 C446.789259,150.952807 446.681195,150.845081 446.570801,150.739755 C446.470286,150.520686 446.362183,150.305157 446.246686,150.093556 C446.141029,149.983508 446.032965,149.875782 445.922571,149.770456 C445.816914,149.660408 445.70885,149.552682 445.598456,149.447356 L293.016565,3.53135895 C292.806664,3.30638739 292.586887,3.09077705 292.357879,2.88515954 C292.042713,2.65153091 291.714593,2.43578922 291.375079,2.23896012 C290.193734,1.43425461 288.859289,0.879800288 287.454331,0.609912237 C286.910443,0.567414809 286.364052,0.567414809 285.820164,0.609912237 C285.714507,0.49986441 285.606443,0.392138631 285.496049,0.286812529 L285.480366,0.247206759 Z M43.0474942,21.4175334 L275.351246,21.4175334 L275.351246,125.318061 C275.351246,148.36862 294.388304,167.333531 317.499802,167.333531 L427.934183,167.333531 L427.934183,547.107429 C427.934183,558.90161 418.500342,568.277755 406.697325,568.277755 L43.0474942,568.277755 C31.2423856,568.277755 21.8095905,558.90161 21.8095905,547.107429 L21.8095905,42.5889024 C21.8095905,30.8207772 31.2423856,21.4175334 43.0474942,21.4175334 L43.0474942,21.4175334 Z M296.261898,35.4233846 L404.735905,138.997686 L412.5774,146.488388 L317.499802,146.488388 C305.690511,146.488388 296.261898,137.099736 296.261898,125.318061 L296.261898,35.4233846 L296.261898,35.4233846 Z M183.214731,257.228624 C182.772582,257.308222 182.336038,257.416145 181.907815,257.551724 C180.361925,257.87493 178.909576,258.543064 177.659817,259.505956 L113.620945,307.710348 C110.974741,309.629994 109.382774,312.673987 109.31913,315.935827 C109.255487,319.197668 110.727509,322.30107 113.29683,324.321842 L177.009495,373.502829 C179.985992,375.772007 183.950784,376.285847 187.410374,374.85079 C190.869964,373.415733 193.298757,370.249799 193.78185,366.545564 C194.264943,362.841329 192.728943,359.161555 189.752447,356.892377 L137.148565,316.178687 L190.078653,276.442634 C194.292667,273.867593 196.122364,268.702821 194.4651,264.060804 C192.807835,259.418787 188.116332,256.567609 183.217868,257.225498 L183.214731,257.228624 Z M254.114388,257.551724 C249.94275,258.329177 246.656266,261.54306 245.796426,265.685937 C244.936585,269.828813 246.673955,274.078858 250.193641,276.442634 L303.45098,316.178687 L250.519847,356.892377 C247.54335,359.161555 246.00735,362.841329 246.490444,366.545564 C246.973537,370.249798 249.40233,373.415733 252.86192,374.85079 C256.321509,376.285847 260.286302,375.772007 263.262798,373.502829 L326.975464,324.321842 C329.582495,322.351164 331.113925,319.277638 331.113925,316.016095 C331.113925,312.754552 329.582495,309.681026 326.975464,307.710348 L262.936592,259.505956 C260.691202,257.833079 257.866034,257.129 255.095098,257.551724 C254.767678,257.536368 254.439716,257.536368 254.112297,257.551724 L254.114388,257.551724 Z" id="Shape" fill="#9B9B9B"></path>
                </g>
                <g id="noun_116635_cc" transform="translate(534.879146, 387.054565) rotate(10.000000) translate(-534.879146, -387.054565) translate(294.379146, 74.554565)">
                    <path d="M46.1186315,22.8824946 L294.99563,22.8824946 L294.99563,133.038497 C294.99563,157.476846 315.390848,177.583565 340.15119,177.583565 L458.46429,177.583565 L458.46429,580.222274 C458.46429,592.72654 448.357411,602.667189 435.712331,602.667189 L46.1186315,602.667189 C33.4713111,602.667189 23.3655521,592.72654 23.3655521,580.222274 L23.3655521,45.328515 C23.3655521,32.8518736 33.4713111,22.8824946 46.1186315,22.8824946 L46.1186315,22.8824946 Z" id="Path" fill="#333333"></path>
                    <path d="M305.847391,0.437579301 C305.490903,0.534549477 305.1395,0.648873577 304.794475,0.780131672 L303.741558,0.780131672 L46.1130309,0.780131672 C21.3482087,0.780131672 0.95747082,20.8956909 0.95747082,45.326305 L0.95747082,580.220064 C0.95747082,604.663938 21.3482087,624.765132 46.1130309,624.765132 L435.70673,624.765132 C460.471553,624.765132 480.86117,604.663938 480.86117,580.220064 L480.86117,167.223014 C480.868581,166.99102 480.868581,166.758853 480.86117,166.526859 C480.862964,166.412681 480.862964,166.298484 480.86117,166.184306 C480.812354,165.484369 480.696083,164.790607 480.513932,164.112417 C480.515726,163.99824 480.515726,163.884042 480.513932,163.769865 C480.521109,163.541551 480.521109,163.313073 480.513932,163.08476 C480.400737,162.968087 480.284963,162.853875 480.166694,162.742208 C480.168488,162.62803 480.168488,162.513832 480.166694,162.399655 C480.059007,162.167397 479.943191,161.938892 479.819455,161.71455 C479.712004,161.478561 479.596187,161.246366 479.472217,161.018396 C479.356477,161.016626 479.240717,161.016626 479.124978,161.018396 C479.017292,160.786138 478.901476,160.557632 478.77774,160.333291 C478.664545,160.216617 478.548771,160.102406 478.430501,159.990739 C478.322815,159.758481 478.206999,159.529975 478.083263,159.305634 C477.970068,159.18896 477.854294,159.074749 477.736024,158.963081 C477.622829,158.846408 477.507055,158.732196 477.388786,158.620529 L313.921245,3.9194584 C313.696369,3.68094211 313.460913,3.45235066 313.215567,3.23435366 C312.877916,2.9866591 312.526387,2.75792838 312.16265,2.54924892 C310.897025,1.69609501 309.467376,1.10825899 307.962185,0.822121962 C307.379494,0.777065918 306.794123,0.777065918 306.211432,0.822121962 C306.098236,0.705448554 305.982463,0.591236996 305.864193,0.479569592 L305.847391,0.437579301 Z M46.1186315,22.8824946 L294.99563,22.8824946 L294.99563,133.038497 C294.99563,157.476846 315.390848,177.583565 340.15119,177.583565 L458.46429,177.583565 L458.46429,580.222274 C458.46429,592.72654 448.357411,602.667189 435.712331,602.667189 L46.1186315,602.667189 C33.4713111,602.667189 23.3655521,592.72654 23.3655521,580.222274 L23.3655521,45.328515 C23.3655521,32.8518736 33.4713111,22.8824946 46.1186315,22.8824946 L46.1186315,22.8824946 Z M317.39811,37.7315874 L433.610978,147.541722 L442.011909,155.483412 L340.15119,155.483412 C327.499389,155.483412 317.39811,145.529503 317.39811,133.038497 L317.39811,37.7315874 L317.39811,37.7315874 Z M196.285819,272.890917 C195.812126,272.975307 195.344438,273.089728 194.885664,273.233469 C193.229486,273.576135 191.673521,274.284494 190.3346,275.305359 L121.727004,326.411962 C118.892011,328.447183 117.186469,331.674444 117.118285,335.132668 C117.050101,338.590893 118.627141,341.881139 121.379765,344.023574 L189.637883,396.16557 C192.826732,398.571367 197.074385,399.116143 200.780792,397.594687 C204.487199,396.07323 207.08927,392.716686 207.606828,388.789433 C208.124387,384.862179 206.478804,380.96086 203.289955,378.555063 L146.933155,335.390149 L203.639434,293.261733 C208.154088,290.531658 210.114321,285.055933 208.338823,280.134437 C206.563324,275.212942 201.537115,272.190105 196.28918,272.887602 L196.285819,272.890917 Z M272.24367,273.233469 C267.774415,274.05773 264.253464,277.465109 263.332279,281.857413 C262.411095,286.249718 264.272414,290.755642 268.043205,293.261733 L325.100083,335.390149 L268.392684,378.555063 C265.203835,380.96086 263.558252,384.862179 264.075811,388.789433 C264.593369,392.716686 267.19544,396.07323 270.901847,397.594687 C274.608254,399.116143 278.855907,398.571367 282.044756,396.16557 L350.302874,344.023574 C353.095898,341.934249 354.736585,338.675677 354.736585,335.217768 C354.736585,331.759859 353.095898,328.501287 350.302874,326.411962 L281.695277,275.305359 C279.289694,273.531764 276.26297,272.785294 273.294347,273.233469 C272.943568,273.217189 272.592208,273.217189 272.24143,273.233469 L272.24367,273.233469 Z" id="Shape" fill="#9B9B9B"></path>
                </g>
                <g id="noun_116635_cc" transform="translate(165.754556, 139.456647)">
                    <path d="M48.6946209,25.1587259 L316.716003,25.1587259 L316.716003,145.034375 C316.716003,171.62905 338.680085,193.509891 365.345068,193.509891 L492.759177,193.509891 L492.759177,631.675544 C492.759177,645.283129 481.874845,656.100893 468.257067,656.100893 L48.6946209,656.100893 C35.0744297,656.100893 24.1913046,645.283129 24.1913046,631.675544 L24.1913046,49.5852774 C24.1913046,36.007756 35.0744297,25.1587259 48.6946209,25.1587259 L48.6946209,25.1587259 Z" id="Path" fill="#333333"></path>
                    <path d="M328.402516,0.733376848 C328.018606,0.838903216 327.640172,0.963314737 327.268606,1.10615443 L326.134696,1.10615443 L48.6885895,1.10615443 C22.0187809,1.10615443 0.0595247889,22.9966159 0.0595247889,49.5828724 L0.0595247889,631.673139 C0.0595247889,658.273826 22.0187809,680.148655 48.6885895,680.148655 L468.251035,680.148655 C494.920844,680.148655 516.878894,658.273826 516.878894,631.673139 L516.878894,182.235173 C516.886874,181.982709 516.886874,181.730057 516.878894,181.477593 C516.880826,181.353341 516.880826,181.229067 516.878894,181.104815 C516.826322,180.343118 516.701107,179.588143 516.504944,178.850112 C516.506876,178.72586 516.506876,178.601586 516.504944,178.477334 C516.512674,178.228876 516.512674,177.980238 516.504944,177.731779 C516.383042,177.604811 516.258363,177.480522 516.130995,177.359002 C516.132927,177.23475 516.132927,177.110476 516.130995,176.986224 C516.015025,176.733473 515.890301,176.484805 515.757046,176.240669 C515.64133,175.983857 515.516604,175.731174 515.383097,175.483089 C515.258455,175.481163 515.13379,175.481163 515.009148,175.483089 C514.893178,175.230337 514.768453,174.98167 514.635199,174.737534 C514.513297,174.610565 514.388617,174.486276 514.26125,174.364756 C514.14528,174.112005 514.020555,173.863337 513.887301,173.619201 C513.765398,173.492233 513.640719,173.367944 513.513352,173.246423 C513.391449,173.119455 513.26677,172.995166 513.139403,172.873646 L337.097436,4.52248057 C336.855261,4.26291873 336.601693,4.01415744 336.337475,3.77692541 C335.97385,3.50737545 335.59528,3.25846262 335.203564,3.03137025 C333.840583,2.10293806 332.300962,1.46323416 330.679987,1.15184974 C330.052473,1.10281817 329.422073,1.10281817 328.794559,1.15184974 C328.672657,1.02488162 328.547977,0.900592576 328.42061,0.779072164 L328.402516,0.733376848 Z M48.6946209,25.1587259 L316.716003,25.1587259 L316.716003,145.034375 C316.716003,171.62905 338.680085,193.509891 365.345068,193.509891 L492.759177,193.509891 L492.759177,631.675544 C492.759177,645.283129 481.874845,656.100893 468.257067,656.100893 L48.6946209,656.100893 C35.0744297,656.100893 24.1913046,645.283129 24.1913046,631.675544 L24.1913046,49.5852774 C24.1913046,36.007756 35.0744297,25.1587259 48.6946209,25.1587259 L48.6946209,25.1587259 Z M340.841752,41.3180327 L465.994071,160.817297 L475.041227,169.459725 L365.345068,169.459725 C351.720052,169.459725 340.841752,158.62753 340.841752,145.034375 L340.841752,41.3180327 L340.841752,41.3180327 Z M210.413131,297.226715 C209.902999,297.318551 209.399335,297.443068 208.905272,297.599492 C207.121695,297.972393 205.44604,298.743254 204.004126,299.854195 L130.119022,355.470205 C127.065953,357.685005 125.229215,361.197023 125.155786,364.960385 C125.082357,368.723747 126.780709,372.304309 129.745073,374.635783 L203.253815,431.378543 C206.68796,433.996617 211.262355,434.589461 215.253871,432.933759 C219.245386,431.278056 222.047616,427.625346 222.604987,423.351571 C223.162357,419.077795 221.390191,414.832241 217.956046,412.214168 L157.264107,365.240585 L218.332408,319.394956 C223.194343,316.423992 225.305364,310.465115 223.393289,305.109369 C221.481213,299.753624 216.068373,296.464066 210.41675,297.223107 L210.413131,297.226715 Z M292.213893,297.599492 C287.40085,298.496482 283.609056,302.204512 282.617011,306.984373 C281.624966,311.764233 283.629464,316.66774 287.690316,319.394956 L349.136184,365.240585 L288.066677,412.214168 C284.632532,414.832241 282.860366,419.077795 283.417737,423.35157 C283.975108,427.625346 286.777338,431.278056 290.768853,432.933758 C294.760369,434.589461 299.334764,433.996616 302.768908,431.378543 L376.277651,374.635783 C379.285524,372.362106 381.052417,368.816013 381.052417,365.052994 C381.052417,361.289976 379.285524,357.743883 376.277651,355.470205 L302.392547,299.854195 C299.801919,297.924107 296.54237,297.111773 293.345391,297.599492 C292.96763,297.581775 292.589242,297.581775 292.211481,297.599492 L292.213893,297.599492 Z" id="Shape" fill="#9B9B9B"></path>
                </g>
            </g>
        </g>
    </g>
</svg>