<?xml version="1.0" encoding="UTF-8" standalone="no"?>
<svg width="800px" height="800px" viewBox="0 0 800 800" version="1.1" xmlns="http://www.w3.org/2000/svg" xmlns:xlink="http://www.w3.org/1999/xlink">
    <g fill="none" fill-rule="evenodd">
        <g fill="#ffffff">
            <g transform="translate(2.000000, 263.000000)">
                <path d="M658.254226,0 C582.633668,0 521.105105,61.2251375 521.105105,136.477183 C521.105105,211.729229 582.633667,272.954366 658.254226,272.954366 C733.883637,272.954366 795.412199,211.729229 795.412199,136.477183 C795.412199,61.2251375 733.883637,0 658.254226,0 L658.254226,0 Z M658.254788,232.011211 C605.314458,232.011211 562.251169,189.156442 562.251169,136.477183 C562.251169,83.7979239 605.314457,40.943155 658.254788,40.943155 C711.195119,40.943155 754.266135,83.7979247 754.266135,136.477183 C754.266135,189.156442 711.195119,232.011211 658.254788,232.011211 L658.254788,232.011211 Z" id="Shape"></path>
                <path d="M259.612071,0 L14.6950229,0 C6.58195855,0 0,6.54492612 0,14.6225553 L0,258.331811 C0,266.40944 6.58195855,272.954366 14.6950229,272.954366 L259.612071,272.954366 C267.724948,272.954366 274.307094,266.40944 274.307094,258.331811 L274.307094,14.6225553 C274.307094,6.54492612 267.724948,0 259.612071,0 L259.612071,0 Z M233.16103,232.011211 L41.1460641,232.011211 L41.1460641,40.943155 L233.16103,40.943155 L233.16103,232.011211 L233.16103,232.011211 Z" id="Shape"></path>
                <path d="M396.865178,57.0576298 C390.668279,63.0711665 390.668279,72.8312521 396.865178,78.8447898 L441.760244,122.449201 L321.833513,122.449201 C313.075515,122.449201 305.96997,129.345458 305.96997,137.856695 C305.96997,146.367931 313.075515,153.264189 321.833513,153.264189 L441.760244,153.264189 L396.865179,196.868601 C390.66828,202.882137 390.66828,212.642223 396.865179,218.655761 C399.963527,221.665037 404.022363,223.169675 408.081199,223.169675 C412.140036,223.169675 416.198871,221.665036 419.29722,218.655761 L491.271849,148.750275 C497.468546,142.736738 497.468546,132.976652 491.271849,126.963115 L419.297219,57.0576298 C413.100523,51.0390774 403.061875,51.0390774 396.865178,57.0576298 Z" id="Shape"></path>
            </g>
        </g>
    </g>
</svg>
