<?xml version="1.0" encoding="utf-8"?>
<!-- Generator: Adobe Illustrator 18.1.1, SVG Export Plug-In . SVG Version: 6.00 Build 0)  -->
<!DOCTYPE svg PUBLIC "-//W3C//DTD SVG 1.1//EN" "http://www.w3.org/Graphics/SVG/1.1/DTD/svg11.dtd">
<svg version="1.1" xmlns="http://www.w3.org/2000/svg" xmlns:xlink="http://www.w3.org/1999/xlink" x="0px" y="0px"
	 viewBox="535 10 250 250" opacity="0.5">
<path fill="#FFFFFF" d="M723.7,144.1c1.1,1.1,1.2,2.9-0.1,3.8c-3.2,2.1-7.3,1.8-11.1,1.4c-6.4-0.7-14-1-17.3-7
	c-0.1,0-0.1-0.1-0.2-0.2c-4.2-2.3,2.9-3.9,4.9-4.2c4.5-0.6,9.3,0.6,13.7,1.6C717.3,140.2,720.8,141.2,723.7,144.1L723.7,144.1z
	 M782.1,239.5c-3,2.1-1.7,5.7-3.8,8.2c-2.1,2.4-7.2,2.4-9.9,2.4c-11.5,0.1-22.7-0.8-34,0.1c-2.9,0.2-5.5,0.6-8.2,1.3
	c-0.8,0.2-2.1,0.7-3,0.2c-2.3-1.2-4.4-5-7.4-3.8c-2.5,1.1-4.4,4.7-7.4,2.5c-5.5-4.1-10.1-0.4-15.9,0.7c-6,1.2-11.7-2.1-17.6-0.5
	c-4.4,1.3-8.6,2.6-13.1,1.1c-4.5-1.6-5.7-5.1-1.8-8.4c6.2-5.1,13.9-5.9,21.6-5.3c11.7,1,23.3,0.1,35-0.5c0.4,0,0.6,0.2,0.6,0.5
	c5,2,8.2-2,11.1-5.5c0.4-0.5,1.1-0.2,1.3,0.1c4.2,6.2,9.3-0.8,14.6-0.2c1.4,0.1,2.7,0.5,3.6,1.8c0.4,0.6,0.5,1.3,0.5,2
	c0.2,3.2,4.3,2.5,4.2-0.7c0-0.5,0.6-1,1.1-0.8c4.2,1.7,9.6,3.9,13-0.5c2.9-3.7,3.3-9,3.6-13.5c0.6-12.1-0.2-24.5-1.1-36.5
	c-0.7-11.7-2-23.6-0.6-35.3c1.4-11.6,1.3-22.9,1.1-34.6c-0.1-6.1-0.4-12.2,0-18.3c0.2-5.6,1.2-11.6,0.6-17.2
	c-0.6-5-3.6-9.3-4.2-14.2c-0.6-4.5,0-9.2,1.1-13.6c0.6-2.7,2-6,1.9-8.8c-0.1-2.4-0.2-4.9-0.1-7.3c0-1.2-0.2-3.1,0.7-4.1
	c1.4-1.7,2.1-4.2-1.2-4.5c-7.9-1-16-6-23.5-1.1c0.1,1.7,0.2,3.6-0.2,5.3l1.1,1.4c1.9,0.8,3.8,1.1,5.9,1.2c2.4,0,5-0.6,7.4-0.4
	c2,0.2,3.7,2,3,4.3c-0.5,1.7-2,3.1-2.9,4.5c-1.6,2.5-1.3,6.1-1.3,9c-0.1,7.3,0,14.6,0.2,21.7c0.2,6,0.8,12.1,1.2,18.1
	c0.1,0.1,0.5,0.2,0.5,0.5c0.2,6.8,2.5,13.5,2.6,20.3c0.1,0.1-1.8,8.4-1.8,8.4c-0.1,8.8-0.8,25.1-0.8,25.1c-0.1,15-2.7,29.9-0.1,44.8
	c1.1,6-1.2,11.8-1.4,17.8c-0.2,6.6,0.6,13.1-0.4,19.7c0.1,0.4,0,0.8-0.5,1c-13.7,2.6-27.6,3.1-41.6,2.3c-3.5-0.2-7.6-0.5-11,0.8
	c-1.3,0.6-3.1,1.4-4.7,1.3c-2-0.2-3-1.8-4.9-2.1c-2.4-0.5-4.7-1-7-1.2c-6.2-0.8-12.1-1.2-17.9,1.3c-3.2,1.4-6.6,0.8-9.8-0.5
	c-3.8-1.6-6.7-3.5-10.9-1.4c-1.7,0.8-3.2,1.7-5.1,2.1c-1.6,0.4-3,0-4.4-0.6c-3.2-1.2-5.7-1.6-9.1-1c0.4,0.5,0.1,1.4-0.6,1.4
	c-20.3-1.1-40.7,1.3-61,1.6c-1,0.2-1.7,1.3-2.3,1.3h-0.6c-0.5,0-0.6-1.7-0.5-2c-2.7-3-2-12.9-1.9-15.8c0.8-18.9-1.6-37.9-2.1-56.7
	c-0.2-9.4-0.2-18.9,1.3-28.2c1.8-10.5,1.8-20.7,1.6-31.2c-0.5-20.9,1.6-41.7,1-62.6c0-0.4,0.4-0.5,0.6-0.4l0.2-0.1
	c5.6-0.5,11.7-2,17.2-0.5c0.1,0,0.2,0.1,0.2,0.2l0.8,0.1h6.2c0.2,0,0.5,0.1,0.5,0.2c11,0.1,22-0.8,33-1.3c3.8-0.1,7.8,0,11.6-1.2
	c1.9-0.6,4.2-1.6,6.2-1.4c5,0.4,10.1,1.9,15,3c3.5,0.7,5.9-5.3,9-3.2c4.7,3,10.1,1.9,15.5,2c2.9,0.1,5.6-0.5,8.5-0.5
	c1.6,0,2.9,0.4,4.3,0.7c1.4-0.2,2.6-0.1,4.2,0.5l25.6-0.8c5.1,0.1,10.7,0.5,15.6-1.4c1.3-0.5,2-1.2,2.4-2c-0.2-0.4-0.4-0.8-0.6-1.3
	c-0.4-0.7-0.8-1.6-1.3-2.1c-5.5-1.8-11.8-1.3-17.6-1.6c-7.9-0.4-15.6,0.7-23.5,1.3c-7.3,0.6-14.9,1.1-22.2,0.5
	c-4.3-0.4-12.4-2.3-16.1,0.7c-0.4,0.2-0.7,0.2-1.1,0c-7-5.7-16.2,2.9-24.2,0.5c-4.8-1.4-9.3-2.4-14.4-1.8c-4.9,0.5-9.7,1.2-14.7,1.2
	c-10.9-0.1-21.7,0.6-32.6,0.2c-2.4-0.1-4.7-0.1-6.9-0.4c-1.9-0.2-4.4-1.2-6.3-0.4c-3,1.1-3.6,2.1-3.3,3c0.8,0.6-2,4.4-2,6.3l-0.2,5
	c-0.1,7.4-0.6,14.2-2.3,21.4c-0.8,3.8-2.7,9.2-1.3,13c0.8,2.5,2.7,4.2,3.8,6.4c1.9,4.1,2,9.1,1.8,13.5l-1.2,43
	c-0.5,14.3-1.4,28.7-0.8,43.1c0.5,13.3,2.6,26.9,0.8,40.1c-0.6,4.4-5.9,12.2-0.8,15.3c2.9,1.7,6.3,2.1,9.6,2.4
	c8.1,0.5,16.2-0.4,24.4-1.3c3-0.4,6-1,9-1c2.3-0.1,4.4,0.2,6.6,1c1.9,0.7,4.8,2,7,2c0.1,0.1,3.6-0.1,3.8-1.1c3-1.3,5.6-2.3,9.4-1.6
	c3.7,0.7,7,1.2,10.9,0.5c2-0.4,5-0.6,7-0.1l0.8,0.6c0.8-0.4-0.5,1-1.3,1.3c-4.5,1.8-3.1,7.6-3.6,11.5c0,0.4-0.5,0.5-0.7,0.5
	c-1.8,0-4.3,0-5.3-1.9c-2.1-3.9-7.2-6.6-7.2,1.6c0,0.5-0.4,0.7-0.7,0.7c-0.4,0-0.7-0.2-0.7-0.7s-5.3-3.3-5.9-3.6
	c-2.6-1.4-5.6-3.1-8.7-2c-1.9,0.6-3.5,1.7-5.3,2.5c-3.2,3.9-6.6,8.1-11.3,5.6c-1-0.5-4.9-3.9-5.7-3.2c-1.1,1.2-2.3,2.4-3.8,3
	c-4.3,1.7-8.8,1.4-13.4,1.3c-0.2,0-0.7-0.2-0.7-0.6c-0.2-1.8-1.2-5.4-3.7-3.2c-0.6,0.5-1.1,1-1.7,1.6c-0.7,0.6-1.6,1.4-2.5,1.8
	c-3,1.2-12.2-0.4-13.4-2.5c-1-1.6-1.3-3.2-1.7-5c-0.7-4.4-0.2-9.2-0.4-13.7c-0.4-11.3-1.2-22.4-2.1-33.7c-0.5-5.7-1-11.6-0.5-17.4
	c0.2-3.7,0.4-8.8,2.3-12.2c1.6-2.7,0.5-4.9-1.6-6.9c-0.5-0.6-0.7-1.7-0.7-2.4c-0.4-4.2,0.4-8.6,0.6-12.8c0.2-3.1,0.7-6.2,0.7-9.3
	c0-2.4-0.5-4.7-0.7-7c-0.1-1.2-0.2-2.4,0.5-3.5c1.4-2,1.2-3.1,0.4-5.4c-1.6-4.4,0-9.7,0.2-14.3c0.4-5.4,0.6-10.7,0-16.2
	c-0.6-6-1.8-11.8-1.4-17.9c0.4-5.5,0.7-10.5,1-15.9c0.5-9.8,0.5-19.7,0.2-29.5v2.3c0,0-0.8-12.5,4.4-15.5c8-4.4,17.7-3.7,26.4-4.1
	c11.3-0.5,22.7,0.6,34,0.6c6.6,0,13.1-0.1,19.5-1.6c4.5-1,9-1.4,13.6-1.2c5.6,0.4,11,1.8,16.5,2.3s10.9,0.2,16.4-0.1
	c11.9-0.8,23.9-0.5,35.8,0l18.6,0.8c2.9,0.1,6.2,0.8,9,0.1l5.3-1.8c3.9-1.1,6.6-0.1,10.4,0.8l14,3.3c1.6-0.4,3.1-0.5,4.3,0.7
	c2.6,2.4,0.1,5.4,2,8.1c2.3,3.2,4.4,5.3,4.9,9.4c0.5,4.4,0.7,9.2-0.7,13.5c-1,2.9-2.3,6-1.1,9.1c0.7,1.9,2,3.7,2.5,5.7
	c1,4.3,1,8.6,0.7,13c-0.2,5-0.5,10.1-1.1,15c-0.4,3.2-1.7,6.3-1.8,9.4c-0.1,2.6,0.7,4.8,1.2,7.3c1.7,8.2-5.5,13.4-6.8,20.9
	c-0.7,4.1,3.9,2.3,6,4.7c1.3,1.6,0.6,4.2,0.5,5.9c-0.5,4.4,0.8,8.7,0.6,13.1c-0.2,5.5-1.9,10-0.6,15.5c0.7,3.1,1.3,6.2,0.6,9.3
	s-4.3,10.9,0.5,12.3c0.2,0,0.4,0.2,0.4,0.5c0,1.4-0.2,2.4-0.8,3.7c-2.1,4.8,1.2,3.8,1.8,6.9c0.6,2.9-1.1,3.9-1.6,6.6
	c-0.7,4.3,1.6,7.6,1.4,11.8c-0.1,3.9-2.3,6.1-1.6,9.7c0.2,0,0.5,0.2,0.5,0.5c0.4,1.9,0.6,4.1-0.1,6c-1,2.7-2.1,3.5,1,5.1
	C782.6,238.5,782.6,239.2,782.1,239.5L782.1,239.5z M729.8,106.8c-1.9-11.7-3-23.9-6.9-35.1c-1.7-4.7-2.5-9.8-8-10.7
	c-7.2-1.2-4.8,4.8-3.8,10.5c1.4,8.8,2,17.8,4.3,26.5c1.6,6,4.5,13.1-3.5,8.5c-13.4-8.1-18-25.8-23.4-39c-2.4-6-9.4-20.3-14.2-23.9
	c-2.3-1.7-13.6-4.2-15.8-2.7c-4.7,3.2,9.8,25.7,11.8,29.7c4.4,9,9.1,17.9,14.8,26c4.1,5.7,10.5,11,1.4,14.4
	c-9.4,3.6-14-1.7-20.4-6.6c-5.1-3.8-11.6-4.4-18-5.1c-17.6-2.1-34.3-0.1-48.4,11.6c-6.8,5.7-11.1,13.5-14.7,21.5
	c-1,2-6.8,19.7-6,19.8c-3.6-0.6-1.4-9-6-4.1c-4.1,4.3,1.2,16.7,3,21c4.1,9.6,8.4,19,11.6,29c3.2,10,3.9,9.8,13.1,10.6
	c11.7,1.1,23.2-2.5,34.7-3.9c0,0-20.4-12.7,19.9,1.2c9,3.1,18.5,2.3,27.9,2.6c6.7-1.6,6.9-13.1,10.4-18.5c1.3-2,7.8-12.2,9.8-13
	c2.9-1.1,7,1.9,9.9,2.3c16.8,2.6,22-11.2,19.3-24.7c-2.3-11.8-1-25,0.7-34.1C734,117.2,730.4,109.9,729.8,106.8L729.8,106.8z
	 M654.7,250.4c-1.8-1.7-4.5-2.1-6.3-3.9c-1-1.1-1.3-2.1-1.1-3.3c0,0-0.1,0-0.1-0.1c-1.3-2.4,1.7-4.4,3.8-3.6
	c1.1,0.5,2.7,1.2,2.9,2.5c0.1,1.7-1,2.9-1.3,4.4c1.2,0.7,2.4,2.4,3,3.2C656,250.3,655.2,250.9,654.7,250.4L654.7,250.4z"/>
</svg>
